<svg width="894" height="494" viewBox="0 0 894 494" fill="none" xmlns="http://www.w3.org/2000/svg">
<path fill-rule="evenodd" clip-rule="evenodd" d="M368 172V321H454H540V312V303H463H386V163V23H377H368V172ZM599 172V321H607.996H616.993L617.246 190.012L617.5 59.024L670.949 138.555L724.398 218.085L730.336 217.793L736.274 217.5L789.387 138.455L842.5 59.41L842.754 190.205L843.007 321H852.504H862V172V23L853.75 23.036L845.5 23.072L788 108.017C756.375 154.736 730.266 192.97 729.979 192.981C729.693 192.991 703.613 154.75 672.024 108L614.588 23H606.794H599V172ZM153 24.604C138.447 27.28 133.152 28.524 125 31.184C82.438 45.073 46.606 81.122 32.063 124.684C26.445 141.513 24.682 152.7 24.605 172C24.549 186.38 24.939 191.502 26.794 200.728C32.913 231.154 46.755 257.256 68.304 279C89.231 300.115 115.285 313.894 145 319.559C157.715 321.983 181.89 322.027 194.954 319.65C240.047 311.445 278.916 282.002 299.445 240.5C308.858 221.47 309.047 223 297.29 223H287.445L284.626 229.471C277.238 246.429 256.643 270.494 240.227 281.349C216.541 297.01 192.577 303.79 165 302.631C131.611 301.227 104.808 289.158 80.5 264.582C55.262 239.065 42.863 208.991 42.742 173C42.668 150.927 46.605 133.725 56.092 114.674C63.1 100.603 70.077 90.929 81.5 79.452C106.652 54.18 138.707 41.484 174.392 42.661C220.487 44.181 261.007 70.248 282.565 112.25L288.082 123H297.541C302.743 123 307 122.597 307 122.105C307 121.612 305.596 117.9 303.88 113.855C296.511 96.484 287.09 82.282 273.55 68.134C253.78 47.478 228.998 33.547 200.13 26.862C193.697 25.372 186.917 24.772 173.5 24.504C163.6 24.307 154.375 24.352 153 24.604ZM49.476 409.202C49.191 409.944 49.08 419.99 49.229 431.526C49.49 451.743 49.572 452.5 51.5 452.5C53.358 452.5 53.52 451.739 53.783 441.796C54.053 431.617 54.194 430.993 56.668 429.046C59.802 426.581 65.234 426.374 67.128 428.648C68.029 429.731 68.672 434.104 69 441.398C69.476 451.975 69.606 452.515 71.75 452.82C73.956 453.133 74 452.941 74 443.037C74 431.985 72.698 427.303 68.883 424.631C65.933 422.565 59.123 422.525 56.223 424.557L54 426.113L53.901 419.807C53.737 409.291 53.601 408.556 51.747 408.194C50.783 408.006 49.761 408.46 49.476 409.202ZM135.448 409.276C135.178 409.978 135.08 419.99 135.229 431.526L135.5 452.5L143.764 452.791C150.28 453.02 152.974 452.663 156.5 451.103C164.672 447.488 166.399 438.038 159.889 432.56C158.216 431.152 156.391 430 155.834 430C155.278 430 156.035 428.558 157.518 426.796C159.805 424.078 160.139 422.923 159.717 419.178C158.844 411.435 153.277 408.078 141.219 408.024C137.84 408.009 135.761 408.46 135.448 409.276ZM178.5 427.689C165.588 455.974 166.577 453.186 169.585 452.814C171.681 452.555 172.688 451.23 175.314 445.271L178.5 438.041L188.807 438.021L199.114 438L202.532 445.5C205.147 451.239 206.425 453 207.975 453C209.089 453 209.977 452.438 209.95 451.75C209.836 448.902 190.364 408.502 188.983 408.247C187.939 408.055 184.838 413.805 178.5 427.689ZM216.448 409.276C216.178 409.978 216.08 419.99 216.229 431.526L216.5 452.5L223 452.815C232.567 453.279 237.687 452.252 241.125 449.179C246.906 444.013 245.742 433.793 239.057 431.024L236.02 429.765L238.51 426.806C243.887 420.415 240.176 410.973 231.5 408.971C225.521 407.591 217.028 407.763 216.448 409.276ZM247.044 408.75C247.069 409.163 250.886 414 255.528 419.5L263.966 429.5L263.983 441.25C263.999 452.328 264.114 453 266 453C267.885 453 268 452.333 268 441.421V429.842L276.25 419.886C280.788 414.41 284.65 409.495 284.833 408.965C285.017 408.434 284.111 408 282.821 408C281.103 408 278.557 410.287 273.298 416.555L266.121 425.111L258.874 416.555C253.633 410.369 250.986 408 249.313 408C248.041 408 247.02 408.337 247.044 408.75ZM311 438C311 467.333 311.044 468 313 468C314.956 468 315 467.333 315 438C315 408.667 314.956 408 313 408C311.044 408 311 408.667 311 438ZM346 430.5C346 452.333 346.059 453 348 453C349.874 453 350 452.333 350 442.418V431.837L361.241 442.418C370.4 451.04 373.04 452.999 375.491 452.993C378.312 452.987 377.766 452.294 366.732 441.893L354.963 430.8L364.982 420.02C370.492 414.091 375 408.961 375 408.62C375 408.279 373.988 407.985 372.75 407.966C371.165 407.942 367.479 411.12 360.282 418.716L350.065 429.5L350.032 418.75C350.002 408.677 349.874 408 348 408C346.059 408 346 408.667 346 430.5ZM381.448 409.276C381.178 409.978 381.08 419.99 381.229 431.526C381.499 452.422 381.508 452.501 383.75 452.82L386 453.139V430.57C386 408.55 385.95 408 383.969 408C382.851 408 381.717 408.574 381.448 409.276ZM397 430.479V453.211L408.75 452.842C418.451 452.538 421.309 452.078 425.138 450.202C437.104 444.341 440.555 426.397 431.664 416.27C426.658 410.569 421.283 408.715 408.25 408.196L397 407.748V430.479ZM449.19 410.026C443.114 413.73 441.662 422.114 446.245 427.033C447.358 428.227 451.245 430.528 454.884 432.146C458.523 433.764 462.063 435.829 462.75 436.735C464.78 439.41 464.234 443.857 461.545 446.545C458.367 449.723 453.808 449.724 448.25 446.546L444 444.116V446.873C444 450.437 449.04 453 456.049 453C460.274 453 461.567 452.507 464.576 449.749C467.179 447.364 468.269 445.411 468.672 442.412C469.575 435.677 467.365 432.823 457.656 428.188C448.78 423.95 446.707 421.284 448.984 417.031C451.696 411.962 457.154 410.765 463.289 413.892L467 415.784V412.99C467 410.755 466.37 409.976 463.851 409.098C458.971 407.397 452.868 407.783 449.19 410.026ZM497.481 409.189C497.199 409.924 497.088 423.345 497.234 439.013C497.493 466.745 497.553 467.5 499.5 467.5C501.455 467.5 501.5 466.833 501.5 438.013C501.5 410.706 501.37 408.502 499.747 408.189C498.783 408.004 497.763 408.454 497.481 409.189ZM532.521 409.176C532.26 409.904 532.149 419.95 532.274 431.5C532.499 452.439 532.507 452.501 534.75 452.82C536.962 453.134 537 452.959 537 442.57V432H551H565V442.5C565 452.333 565.127 453 567 453C568.941 453 569 452.333 569 430.5C569 408.667 568.941 408 567 408C565.133 408 565 408.667 565 418V428H551.036H537.072L536.786 418.262C536.541 409.91 536.25 408.475 534.747 408.188C533.783 408.003 532.781 408.448 532.521 409.176ZM591.23 410.115C577.48 416.921 573.84 434.161 583.817 445.227C591.282 453.507 602.992 455.497 613.12 450.206C622.517 445.297 627.308 433.522 623.994 423.481C622.364 418.544 616.484 412.135 611.5 409.866C605.873 407.303 596.683 407.416 591.23 410.115ZM634 430.57V453.139L636.25 452.82C638.466 452.505 638.508 452.227 639 434.641L639.5 416.782L646.907 425.949C652.822 433.27 654.551 434.852 655.494 433.808C656.143 433.088 659.56 428.909 663.087 424.521L669.5 416.541L669.773 434.771L670.045 453H672.542H675.038L674.769 430.763C674.44 403.576 674.571 403.733 663.453 417.191C659.224 422.311 655.442 426.852 655.049 427.282C654.657 427.713 650.641 423.55 646.125 418.032C633.866 403.054 634 402.916 634 430.57ZM686 430.5V453H698.5C710.333 453 711 452.893 711 451C711 449.127 710.333 449 700.5 449H690V441.036V433.072L699.75 432.786C708.738 432.522 709.5 432.344 709.5 430.5C709.5 428.656 708.738 428.478 699.75 428.214L690 427.928V419.964V412H700C709.333 412 710 411.867 710 410C710 408.111 709.333 408 698 408H686V430.5ZM148.473 412.969C153.174 414.059 155 416.199 155 420.619C155 425.232 151.199 428 144.865 428H140V420C140 411.007 140.002 411.005 148.473 412.969ZM229.473 412.969C234.128 414.048 236.006 416.203 235.985 420.441C235.958 425.765 232.877 428 225.566 428H221V420C221 411.007 221.002 411.005 229.473 412.969ZM422.645 414.921C428.778 418.367 431.508 423.171 431.458 430.427C431.406 437.926 429.337 442.087 423.857 445.713C420.315 448.057 418.521 448.472 410.385 448.828L401 449.239V430.481V411.723L409.878 412.229C416.468 412.605 419.758 413.298 422.645 414.921ZM608.746 413.538C610.77 414.384 613.279 415.847 614.32 416.788C619.281 421.275 621.442 431.063 618.933 437.685C615.488 446.778 603.749 451.429 594.254 447.462C589.296 445.39 587.066 443.258 584.881 438.5C577.793 423.066 593.137 407.017 608.746 413.538ZM32.2 415.2C31.54 415.86 31 417.885 31 419.7C31 422.883 30.859 423 27 423C23.667 423 23 423.333 23 425C23 426.667 23.667 427 27 427H31V438.345C31 448.066 31.262 449.927 32.829 451.345C34.965 453.279 42.029 453.571 43.8 451.8C46.276 449.324 45.096 448.173 40.25 448.338L35.5 448.5L35.216 437.75L34.932 427H38.966C42.333 427 43 426.669 43 425C43 423.333 42.333 423 39 423H35V418.5C35 413.893 34.314 413.086 32.2 415.2ZM759.2 415.2C758.54 415.86 758 417.858 758 419.64C758 422.661 757.748 422.9 754.25 423.19C751.721 423.399 750.5 423.989 750.5 425C750.5 426.011 751.721 426.601 754.25 426.81L758 427.121V437.838C758 450.76 759.031 453 764.975 453C770.057 453 772 452.175 772 450.016C772 448.518 771.33 448.321 767.648 448.736C763.404 449.215 763.279 449.146 762.648 445.988C762.291 444.207 762 439.206 762 434.875V427H766C769.333 427 770 426.667 770 425C770 423.333 769.333 423 766 423H762V418.5C762 413.893 761.314 413.086 759.2 415.2ZM193.069 424.689C194.956 428.919 196.65 432.744 196.833 433.189C197.017 433.635 193.529 434 189.083 434C184.637 434 181 433.758 181 433.461C181 432.186 188.342 417 188.958 417C189.333 417 191.182 420.46 193.069 424.689ZM87.42 424.886C79.162 429.921 78.905 443.535 86.941 450.297C89.576 452.514 91.138 453 95.626 453C102.642 453 107 450.851 107 447.393V444.837L103.632 446.918C99.583 449.421 93.343 449.629 90.117 447.369C88.185 446.016 85 440.515 85 438.532C85 438.239 89.964 438 96.031 438C104.776 438 107.179 437.698 107.623 436.541C108.569 434.074 106.026 428.199 102.857 425.533C99.093 422.366 92.037 422.07 87.42 424.886ZM733.201 425.028C727.845 430.017 729.811 435.458 738.511 439.725C744.468 442.646 745.54 444.123 743.911 447.166C743.017 448.836 742.104 449.106 738.665 448.715C736.374 448.456 733.487 447.911 732.25 447.505C730.387 446.894 730 447.135 730 448.908C730 453.512 742.356 454.735 746.545 450.545C751.435 445.656 749.409 440.131 741.287 436.204C734.763 433.05 732.989 430.923 734.93 428.584C736.626 426.541 742.878 426.526 745.777 428.557C747.902 430.045 748 430 748 427.532C748 425.681 747.274 424.674 745.435 423.975C741.113 422.332 735.583 422.808 733.201 425.028ZM782.299 424.96C778.137 427.497 775.648 432.377 775.648 438C775.648 447.144 781.442 452.993 790.5 452.993C799.558 452.993 805.352 447.144 805.352 438C805.352 428.856 799.558 423.007 790.5 423.007C787.301 423.007 784.347 423.711 782.299 424.96ZM813 438C813 452.333 813.089 453 815 453C816.856 453 817 452.333 817 443.728C817 434.852 817.131 434.296 820.073 430.728C823.411 426.678 825.756 426.139 829.464 428.568C831.694 430.03 831.93 430 832.932 428.127C833.815 426.477 833.61 425.84 831.781 424.559C828.15 422.016 824.001 422.607 820.298 426.196L817 429.392V426.196C817 423.667 816.583 423 815 423C813.089 423 813 423.667 813 438ZM840.615 425.088C832.734 431.288 833.192 446.097 841.42 451.114C847.795 455.002 861 452.474 861 447.366V444.959L857.04 446.98C850.944 450.089 846.468 449.668 842.4 445.6C840.53 443.73 839 441.27 839 440.133C839 438.182 839.636 438.05 850.25 437.783L861.5 437.5L861.185 434.574C860.707 430.143 858.299 426.206 855.033 424.517C850.728 422.291 843.823 422.565 840.615 425.088ZM100.545 429.455C104.502 433.411 103.719 434 94.5 434C89.825 434 86 433.616 86 433.146C86 432.676 87.104 431.101 88.452 429.646C91.739 426.1 97.106 426.015 100.545 429.455ZM795.855 428.425C799.003 430.053 801 433.77 801 438C801 446.444 793.24 451.345 785.472 447.805C780.55 445.563 778.441 437.441 781.396 432.11C784.046 427.328 790.536 425.674 795.855 428.425ZM854 429C857.966 432.966 856.726 434 848 434C839.298 434 838.535 433.374 842.455 429.455C845.564 426.345 851.126 426.126 854 429ZM156.545 435.455C159.794 438.703 159.756 442.941 156.451 446.046C154.388 447.984 152.58 448.515 146.951 448.833L140 449.226V441.113V433H147.045C153.192 433 154.404 433.313 156.545 435.455ZM237.545 435.455C240.248 438.157 240.729 442.457 238.637 445.211C236.735 447.714 232.594 449 226.435 449H221V441V433H228.045C234.192 433 235.404 433.313 237.545 435.455Z" fill="white" fill-opacity="0.6"/>
</svg>
