<svg xmlns="http://www.w3.org/2000/svg" width="229.884" height="17.544" viewBox="0 0 229.884 17.544">
  <g id="Group_3" data-name="Group 3" transform="translate(-181.52 -470.212)" opacity="0.601" style="isolation: isolate">
    <g id="Group_1" data-name="Group 1">
      <path id="Path_1" data-name="Path 1" d="M202.8,487.756c-3.708,0-6.015-2.3-6.015-5.99V470.6h1.8v11.042c0,2.832,1.534,4.457,4.209,4.457,2.716,0,4.21-1.583,4.21-4.457V470.6h1.8v11.164C208.818,485.46,206.514,487.756,202.8,487.756Z" fill="#fff"/>
      <path id="Path_2" data-name="Path 2" d="M212.881,487.559V470.6h5.03c3.458,0,5.692,2.022,5.692,5.151,0,3.164-2.181,5.129-5.692,5.129h-3.227v6.676h-1.8Zm4.933-8.308c2.524,0,3.915-1.242,3.915-3.5s-1.391-3.521-3.915-3.521h-3.128v7.019Z" fill="#fff"/>
      <path id="Path_3" data-name="Path 3" d="M227.64,487.559V470.6h10.305v1.63h-8.5v5.982h7.589v1.608h-7.589v6.107h8.846v1.63Z" fill="#fff"/>
      <path id="Path_4" data-name="Path 4" d="M251.88,487.559l-4.238-6.852h-3.588v6.852h-1.8V470.6h5.1c3.46,0,5.7,2,5.7,5.1a4.692,4.692,0,0,1-3.566,4.72l4.435,7.136Zm-4.625-8.457c2.56,0,3.915-1.175,3.915-3.4s-1.391-3.471-3.915-3.471h-3.2V479.1Z" fill="#fff"/>
      <path id="Path_5" data-name="Path 5" d="M258.029,487.559V470.6h5.742c3.012,0,4.882,1.68,4.882,4.387a3.654,3.654,0,0,1-2.254,3.684,4.036,4.036,0,0,1,3.093,4.176c0,2.9-2.06,4.709-5.373,4.709h-6.09Zm5.941-1.608c2.38,0,3.692-1.136,3.692-3.2s-1.363-3.225-3.741-3.225h-4.086v6.425Zm-.049-7.958a2.643,2.643,0,0,0,2.956-2.9c0-1.83-1.185-2.879-3.251-2.879h-3.791v5.784Z" fill="#fff"/>
      <path id="Path_6" data-name="Path 6" d="M187.423,487.756a6.323,6.323,0,0,1-5.856-3.43l-.047-.089,1.533-.809.047.089a4.672,4.672,0,0,0,4.3,2.583c2.188,0,3.546-1.066,3.546-2.784,0-1.747-1.04-2.552-3.1-3.5l-1.353-.641c-2.5-1.175-3.951-2.316-3.951-4.673,0-2.41,1.845-4.092,4.486-4.092a5.007,5.007,0,0,1,4.717,2.51l.053.085-1.4.9-.053-.09a3.478,3.478,0,0,0-3.289-1.8,2.483,2.483,0,0,0-2.731,2.437c0,1.562.883,2.14,2.9,3.088l1.332.641c2.657,1.243,4.2,2.476,4.2,5.092C192.747,486.036,190.707,487.756,187.423,487.756Z" fill="#fff"/>
    </g>
    <g id="Group_2" data-name="Group 2">
      <path id="Path_7" data-name="Path 7" d="M287.25,487.414a1.816,1.816,0,0,1-1.564-1.267l-1.253-3.4H277.4l-1.252,3.4a1.82,1.82,0,0,1-1.564,1.27.941.941,0,0,1-.992-.9.875.875,0,0,1,.677-.869.288.288,0,0,0,.242-.217l5.422-14.53a1.06,1.06,0,0,1,1.97,0l5.419,14.52a.284.284,0,0,0,.233.225.881.881,0,0,1,.688.871A.94.94,0,0,1,287.25,487.414ZM283.829,481l-2.407-6.293-.517-1.657-.495,1.65L278,481h5.826Z" fill="#fff"/>
      <path id="Path_8" data-name="Path 8" d="M293.2,487.414a.887.887,0,0,1-.92-.871.858.858,0,0,1,.523-.79.241.241,0,0,0,.1-.222V472.239a.233.233,0,0,0-.108-.222.861.861,0,0,1-.52-.791.888.888,0,0,1,.92-.871c.869,0,1.45.718,1.45,1.786v13.173a1.084,1.084,0,0,1-.042.357h8.034a.861.861,0,0,1,.872.847.887.887,0,0,1-.872.9Z" fill="#fff"/>
      <path id="Path_9" data-name="Path 9" d="M308.416,487.414a.9.9,0,0,1-.873-.871V471.226a.9.9,0,0,1,.873-.871.874.874,0,0,1,.872.871v15.317A.873.873,0,0,1,308.416,487.414Z" fill="#fff"/>
      <path id="Path_10" data-name="Path 10" d="M318.532,487.535a9.157,9.157,0,0,1-4.75-1.413.918.918,0,0,1-.432-.759.831.831,0,0,1,.848-.848,1.155,1.155,0,0,1,.686.234,6.589,6.589,0,0,0,3.648,1.043c2.027,0,4.208-.828,4.208-2.645s-1.921-2.6-4.435-3.445c-2.158-.736-5.027-2.045-5.027-4.937,0-2.944,2.868-4.532,5.567-4.532a6.991,6.991,0,0,1,4.423,1.517.956.956,0,0,1,.4.727.889.889,0,0,1-.889.843.916.916,0,0,1-.574-.209,5.555,5.555,0,0,0-3.285-1.134c-1.877,0-3.9.888-3.9,2.838,0,1.754,2.177,2.636,4.219,3.323,2.089.711,5.247,1.784,5.247,4.984C324.486,486.154,321.4,487.535,318.532,487.535Z" fill="#fff"/>
      <path id="Path_11" data-name="Path 11" d="M335.847,487.414a.885.885,0,0,1-.872-.9V472.1h-5.584a.872.872,0,0,1,0-1.744h12.885a.872.872,0,1,1,0,1.744h-5.558v14.42A.9.9,0,0,1,335.847,487.414Z" fill="#fff"/>
      <path id="Path_12" data-name="Path 12" d="M348.535,487.414a1.3,1.3,0,0,1-1.328-1.328,1.316,1.316,0,0,1,1.328-1.33,1.331,1.331,0,0,1,1.33,1.33A1.314,1.314,0,0,1,348.535,487.414Z" fill="#fff"/>
      <path id="Path_13" data-name="Path 13" d="M363.068,487.559a8.671,8.671,0,0,1-8.673-8.648,8.765,8.765,0,0,1,8.6-8.7,9.066,9.066,0,0,1,4.213,1.021.909.909,0,0,1,.441.789.884.884,0,0,1-.872.894,1.069,1.069,0,0,1-.4-.1,6.924,6.924,0,1,0-3.315,13,6.735,6.735,0,0,0,3.726-1.091.861.861,0,0,1,.489-.137.884.884,0,0,1,.46,1.631A8.869,8.869,0,0,1,363.068,487.559Z" fill="#fff"/>
      <path id="Path_14" data-name="Path 14" d="M380.839,487.535a8.65,8.65,0,1,1,8.65-8.65A8.66,8.66,0,0,1,380.839,487.535Zm0-15.532a6.9,6.9,0,1,0,6.9,6.883A6.891,6.891,0,0,0,380.839,472Z" fill="#fff"/>
      <path id="Path_15" data-name="Path 15" d="M410.483,487.414c-.867,0-1.449-.718-1.449-1.787V476.6l.059-1.621-.9,1.669-4.962,8.552a.861.861,0,0,1-1.528-.006l-4.982-8.566-.881-1.643.059,1.611v9.034c0,1.069-.582,1.787-1.449,1.787a.888.888,0,0,1-.922-.871.862.862,0,0,1,.521-.79.234.234,0,0,0,.1-.222V472.239a.231.231,0,0,0-.108-.222.863.863,0,0,1-.519-.791.888.888,0,0,1,.922-.871,1.357,1.357,0,0,1,1.222.753c.021.046.053.1,6.8,11.86,6.747-11.759,6.775-11.814,6.8-11.859a1.352,1.352,0,0,1,1.221-.754.887.887,0,0,1,.92.871.862.862,0,0,1-.518.791.23.23,0,0,0-.108.222v13.292a.228.228,0,0,0,.11.222.864.864,0,0,1,.516.79A.889.889,0,0,1,410.483,487.414Z" fill="#fff"/>
    </g>
  </g>
</svg>
