<svg xmlns="http://www.w3.org/2000/svg" width="106.018" height="21.715" viewBox="0 0 106.018 21.715">
  <g id="Page-1" transform="translate(0.04 0.397)">
    <g id="takealot-logo" transform="translate(-0.04 -0.397)">
      <path id="Path" d="M330.2,538.563a10.721,10.721,0,1,1,6.284-9.113A10.721,10.721,0,0,1,330.2,538.563Z" transform="translate(-230.485 -518.073)" fill="#fff" opacity="0.6" style="isolation: isolate"/>
      <path id="Shape" d="M320.655,532.245l.934.1a2.206,2.206,0,0,1-.7,1.31,1.822,1.822,0,0,1-1.233.437,1.777,1.777,0,0,1-1.532-.72,2.8,2.8,0,0,1-.528-1.746,2.626,2.626,0,0,1,.574-1.769,1.892,1.892,0,0,1,1.532-.7,1.738,1.738,0,0,1,1.861,1.623l-.934.13c-.069-.59-.368-.881-.865-.881a.819.819,0,0,0-.766.475,2.412,2.412,0,0,0-.253,1.156,1.961,1.961,0,0,0,.26,1.1.766.766,0,0,0,.712.383c.475,0,.766-.3.934-.9m3.676.957c.728,0,1.08-.536,1.08-1.6a2.144,2.144,0,0,0-.26-1.149.866.866,0,0,0-.766-.421.912.912,0,0,0-.827.436,2.183,2.183,0,0,0-.268,1.149,2.029,2.029,0,0,0,.283,1.179.9.9,0,0,0,.766.406m-.038.888a1.9,1.9,0,0,1-1.616-.766,2.856,2.856,0,0,1-.551-1.731,2.558,2.558,0,0,1,.613-1.746,2.213,2.213,0,0,1,3.2,0,2.55,2.55,0,0,1,.613,1.769,2.519,2.519,0,0,1-.643,1.807,2.121,2.121,0,0,1-1.616.682m9.955-.1h-1.11v-2.948c0-.613-.26-.919-.812-.919a.9.9,0,0,0-.766.345,1.57,1.57,0,0,0-.283,1.034v2.489h-1.126v-2.948c0-.628-.253-.934-.766-.934a.98.98,0,0,0-.766.375,1.531,1.531,0,0,0-.314,1.018v2.489h-1.141v-4.748h1.041v1.011a1.662,1.662,0,0,1,1.585-1.1,1.325,1.325,0,0,1,1.363,1.1,1.754,1.754,0,0,1,1.585-1.1,1.531,1.531,0,0,1,1.118.421,1.463,1.463,0,0,1,.414,1.065V534Z" transform="translate(-231.21 -520.669)" fill="#fff" opacity="0.6" style="isolation: isolate"/>
      <path id="Path-2" data-name="Path" d="M306.309,520.94v4.7h2.221v2.864h-2.221v4.962a2.841,2.841,0,0,0,.123,1.049.766.766,0,0,0,.7.391,3.89,3.89,0,0,0,1.248-.3l.965,3.063a17.222,17.222,0,0,1-3.469.551,4.158,4.158,0,0,1-2.206-.452,2.627,2.627,0,0,1-1.057-1.371,9.328,9.328,0,0,1-.337-2.987v-4.932H300.78v-2.864h1.486v-4.633Z" transform="translate(-227.271 -518.745)" fill="#fff" opacity="0.6" style="isolation: isolate"/>
      <g id="Clipped" transform="translate(0 2.241)">
        <g id="Group_4" data-name="Group 4" transform="translate(0 0)">
          <path id="Path-3" data-name="Path" d="M210.311,521v4.694h2.228v2.864h-2.228v4.962a2.6,2.6,0,0,0,.138,1.049.7.7,0,0,0,.689.391,3.891,3.891,0,0,0,1.248-.3l.965,3.063a17.614,17.614,0,0,1-3.461.551,4.174,4.174,0,0,1-2.213-.452,2.589,2.589,0,0,1-1.057-1.371,9.328,9.328,0,0,1-.337-2.987v-4.932H204.79v-2.864h1.486V521Z" transform="translate(-204.79 -521)" fill="#fff" opacity="0.6" style="isolation: isolate"/>
        </g>
      </g>
      <path id="Shape-2" data-name="Shape" d="M223.9,532.158a16.409,16.409,0,0,1-1.731.605,3.829,3.829,0,0,0-1.532.766,1.317,1.317,0,0,0-.337.873,1.195,1.195,0,0,0,1.31,1.271,2.359,2.359,0,0,0,2.075-1.325,3.607,3.607,0,0,0,.237-1.432v-.766Zm.674,5.843a4.884,4.884,0,0,1-.3-.766,6.663,6.663,0,0,1-.138-.766,5.239,5.239,0,0,1-1.585,1.279,5.591,5.591,0,0,1-2.481.513,3.783,3.783,0,0,1-2.856-1.019,3.492,3.492,0,0,1-.98-2.519,3.653,3.653,0,0,1,.7-2.3,4.549,4.549,0,0,1,2.6-1.355c1.532-.352,2.512-.6,2.964-.727.682-.176,1.064-.2,1.355-.659a.881.881,0,0,0-.245-1.149,1.532,1.532,0,0,0-1.1-.345,2.106,2.106,0,0,0-1.409.337c-.567.452-.375,1.118-.934,1.118h-3.622a6.432,6.432,0,0,1,.636-2.343,4,4,0,0,1,1.179-1.172,4.334,4.334,0,0,1,1.532-.559,14.251,14.251,0,0,1,5,0,3.324,3.324,0,0,1,2.65,2.466,5.927,5.927,0,0,1,.3,1.83V538Zm35.288-5.843a16.533,16.533,0,0,1-1.738.605,3.906,3.906,0,0,0-1.532.766,1.309,1.309,0,0,0-.329.873,1.195,1.195,0,0,0,1.31,1.271,2.244,2.244,0,0,0,1.256-.391,2.2,2.2,0,0,0,.812-.934,3.462,3.462,0,0,0,.245-1.432v-.766ZM260.54,538a4.88,4.88,0,0,1-.3-.766,5.361,5.361,0,0,1-.145-.766,5.361,5.361,0,0,1-1.578,1.279,5.615,5.615,0,0,1-2.481.513,3.775,3.775,0,0,1-2.856-1.018,3.492,3.492,0,0,1-.98-2.458,3.615,3.615,0,0,1,.7-2.3,4.5,4.5,0,0,1,2.588-1.355c1.532-.352,2.512-.6,2.964-.727.674-.176,1.057-.2,1.363-.659a.9.9,0,0,0-.26-1.149,1.531,1.531,0,0,0-1.087-.345,2.091,2.091,0,0,0-1.409.337c-.567.452-.375,1.118-.934,1.118h-3.622a6.578,6.578,0,0,1,.628-2.343,4.12,4.12,0,0,1,1.187-1.172,4.3,4.3,0,0,1,1.532-.559,14.335,14.335,0,0,1,5.016,0,3.545,3.545,0,0,1,1.83.988,3.661,3.661,0,0,1,.812,1.478,6.189,6.189,0,0,1,.306,1.83V538Zm-31.934-17h3.53v9.726l4.595-5.062h4.2l-4.2,4.526,4.181,7.788h-4.181l-2.573-5.161-2.1,2.3v2.872h-3.446Z" transform="translate(-207.471 -518.759)" fill="#fff" opacity="0.6" style="isolation: isolate"/>
      <path id="Shape-3" data-name="Shape" d="M254.8,531.92a2.971,2.971,0,0,0-.62-1.8,1.708,1.708,0,0,0-1.348-.582,1.777,1.777,0,0,0-1.532.888,2.964,2.964,0,0,0-.459,1.532Zm3.944,3.913a4.832,4.832,0,0,1-2.259,2.987,7.037,7.037,0,0,1-3.7.8,6.564,6.564,0,0,1-3.293-.689,5.269,5.269,0,0,1-1.983-2.19,7.482,7.482,0,0,1-.766-3.546,6.808,6.808,0,0,1,1.578-4.671,5.506,5.506,0,0,1,4.365-1.792,6.708,6.708,0,0,1,3.553.766,4.993,4.993,0,0,1,2,2.3,9.832,9.832,0,0,1,.682,3.959v.528h-8.1a3.477,3.477,0,0,0,.528,1.7,1.815,1.815,0,0,0,1.447.927c1.409,0,1.945-.551,2.2-1.31l3.752.168Z" transform="translate(-214.615 -520.099)" fill="#fff" opacity="0.6" style="isolation: isolate"/>
      <g id="Clipped-2" data-name="Clipped" transform="translate(57.105 2.195)">
        <g id="Group_5" data-name="Group 5" transform="translate(0 0)">
          <path id="Shape-4" data-name="Shape" d="M279.36,520.94h3.653v17.008H279.36Zm8.47,10.9a6.938,6.938,0,0,0,.567,3.109,1.692,1.692,0,0,0,2.864,0,7.3,7.3,0,0,0,.559-3.17,5.184,5.184,0,0,0-.567-2.665,1.685,1.685,0,0,0-1.394-.766,1.746,1.746,0,0,0-1.455.766,5.116,5.116,0,0,0-.574,2.7m-4.043,0a6.708,6.708,0,0,1,1.623-4.648,6.272,6.272,0,0,1,9.19.322,6.892,6.892,0,0,1,1.3,4.258,6.785,6.785,0,0,1-1.608,4.664,6.372,6.372,0,0,1-8.562.3,6.509,6.509,0,0,1-1.914-4.893" transform="translate(-279.36 -520.94)" fill="#fff" opacity="0.6" style="isolation: isolate"/>
        </g>
      </g>
    </g>
  </g>
</svg>
