<?xml version="1.0" encoding="utf-8"?>
<!-- Generator: Adobe Illustrator 26.0.3, SVG Export Plug-In . SVG Version: 6.00 Build 0)  -->
<svg version="1.0"
	 id="svg4774" xmlns:cc="http://creativecommons.org/ns#" xmlns:dc="http://purl.org/dc/elements/1.1/" xmlns:rdf="http://www.w3.org/1999/02/22-rdf-syntax-ns#" xmlns:svg="http://www.w3.org/2000/svg"
	 xmlns="http://www.w3.org/2000/svg" xmlns:xlink="http://www.w3.org/1999/xlink" x="0px" y="0px" viewBox="0 0 690 510"
	 style="enable-background:new 0 0 690 510;" xml:space="preserve">
<style type="text/css">
	.st0{fill:#BE0028;}
</style>
<g id="layer1" transform="translate(7.8992e-6,-652.36659)">
	<path id="path4194" class="st0" d="M526.3,822.8C494.4,754.6,425.2,707.4,345,707.4s-149.4,47.2-181.3,115.4l22.7,10.6
		c27.9-59.7,88.4-101,158.6-101c70.2,0,130.8,41.3,158.6,101L526.3,822.8z M180.5,847.5l-23.5-8.6c-7.8,21.4-12,44.4-12,68.4
		c0,24,4.2,47.1,12,68.4l23.5-8.6c-6.8-18.7-10.5-38.9-10.5-59.9S173.7,866.2,180.5,847.5 M163.7,991.9
		c31.9,68.2,101.1,115.4,181.3,115.4s149.4-47.2,181.3-115.4l-22.7-10.6c-27.9,59.7-88.4,101-158.6,101
		c-70.2,0-130.8-41.3-158.6-101L163.7,991.9z M509.5,847.5c6.8,18.7,10.5,38.9,10.5,59.9s-3.7,41.2-10.5,59.9l23.5,8.6
		c7.8-21.3,12-44.4,12-68.4c0-24-4.2-47.1-12-68.4L509.5,847.5z"/>
	<path id="path4198" class="st0" d="M310,867.4c-5,0-10.4,0.9-15,1.9v-41.9l-20.9,2.3v112.4c8.6,2.7,19.8,5.3,30.9,5.3
		c25.2,0,40-8.5,40-40C345,875.8,330.1,867.4,310,867.4 M306.7,929.5c-3.8,0-7.1-0.5-11.7-1.5v-41.2c3.8-0.9,7.5-1.5,11.7-1.5
		c11.4,0,16.8,5.1,16.8,22.1C323.5,924.3,318,929.5,306.7,929.5"/>
	<path id="path4202" class="st0" d="M390.9,898.1c-8.9-0.2-14.5-0.3-14.5-5.1c0-6.4,3.8-7.7,15.3-7.7c7,0,16.8,1.4,23,2.9l-1.7-17.3
		c-8-2.4-17-3.5-22.9-3.5c-25.2,0-34.8,9.1-34.8,26.2c0,16.5,10.2,20.8,27.3,21.1c11.1,0.2,16.8-0.2,16.8,7.1c0,6.4-5,7.7-15.8,7.7
		c-12,0-20.5-1.8-26.7-3.8l1.7,17.3c8,2.9,15.6,4.4,26.7,4.4c26.8,0,35.2-9.1,35.2-25.5C420.4,901.3,406.9,898.4,390.9,898.1"/>
	<path id="path4206" class="st0" d="M226.1,867.4c-6.7,0-15.6,1.1-23.6,3.5l-1.7,17.3c6.7-1.5,16.5-2.9,23-2.9
		c10.9,0,15.3,0.9,15.3,9.7v2.4l-14.5,0.8c-16.1,0.9-29.5,3.6-29.5,23.8c0,16.4,8.3,25.5,33.5,25.5c11.7,0,22.9-2.6,31.5-5.3v-48.5
		C260,876.5,250.5,867.4,226.1,867.4 M239.1,928.9c-2.7,0.5-6.4,1.1-10.2,1.1c-9.1,0-12.9-2.9-12.9-9.1c0-6.5,3.6-7.6,11.2-8
		l11.8-0.8V928.9z"/>
	<path id="path4210" class="st0" d="M461.1,867.4c-6.7,0-15.6,1.1-23.6,3.5l-1.7,17.3c6.7-1.5,16.5-2.9,23-2.9
		c10.9,0,15.3,0.9,15.3,9.7v2.4l-14.5,0.8c-16.1,0.9-29.5,3.2-29.5,23.8c0,16.4,8.3,25.5,33.5,25.5c11.7,0,22.9-2.6,31.5-5.3v-48.5
		C495,876.5,485.5,867.4,461.1,867.4 M474.1,928.9c-2.7,0.5-6.4,1.1-10.2,1.1c-9.1,0-12.9-2.9-12.9-9.1c0-6.5,3.6-7.6,11.2-8
		l11.8-0.8V928.9z"/>
</g>
</svg>
