<?xml version="1.0" encoding="utf-8"?>
<!-- Generator: Adobe Illustrator 26.0.3, SVG Export Plug-In . SVG Version: 6.00 Build 0)  -->
<svg version="1.0" id="Layer_1" xmlns="http://www.w3.org/2000/svg" xmlns:xlink="http://www.w3.org/1999/xlink" x="0px" y="0px"
	 viewBox="0 0 671 505.2" style="enable-background:new 0 0 671 505.2;" xml:space="preserve">
<style type="text/css">
	.st0{fill:#00204E;}
	.st1{fill:#6595D3;}
</style>
<path class="st0" d="M190.4,238.6c1.7,0,3.4,0.8,3.4,1.9V298c0,1.3-1.7,1.9-3.4,1.9v1.3H207v-1.3c-1.7,0-3.4-0.8-3.4-1.9v-57.6
	c0-1.3,1.7-1.9,3.4-1.9v-1.3h-16.6V238.6z M401.8,267.1c0-4,4.5-6,9-6c7.5,0,11.9,1.3,13.2,6.4h1.5l-0.2-6.6
	c-4.3-1.7-8.8-2.6-13.4-2.6c-12.8,0-18.1,6.6-18.1,11.9c0,14.9,25.5,11.3,25.5,22.2c0,3.2-2.6,6.6-9.4,6.6c-8.5,0-12.8-2.6-14.9-8.3
	l-1.1,0.2l0.6,7.9c4.5,2,9.4,3.1,14.3,3.2c14,0,20-6.4,20-12.6C428.9,274.4,401.8,277.8,401.8,267.1L401.8,267.1z M316.8,259.9
	c2.6,0,4.3,1.5,3.4,3.6L307.5,288l-12.6-24.7c-0.6-1.9,1.1-3.4,3.4-3.4v-1.3h-20.2v1.3c2.4,0,4.3,0.9,6,4.1l20.6,37.3l21.1-38.1
	c1.7-2.8,3.8-3.4,5.5-3.4v-1.3h-14.5L316.8,259.9z M269.6,297.8v-28c0-7.9-8.5-12.4-17.3-12.4c-7.6,0-14.1,4.1-16.8,6.4v-6
	c0-0.8-0.4-0.9-0.8-0.9c-5.5,1.9-7.9,3-13.4,4.7v0.9c2.8,0.2,3.8,1.7,4.1,3.8v31.3c0,1.3-1.7,1.9-3.4,1.9v1.3h16.6v-1.3
	c-1.7,0-3.4-0.8-3.4-1.9v-30.4c3.2-2.9,7.4-4.5,11.7-4.7c10.2,0,12.4,5.5,12.4,10.4v24.7c0,1.3-1.7,1.9-3.4,1.9v1.3h16.6v-1.3
	C271.3,299.6,269.6,299.3,269.6,297.8L269.6,297.8z M382.6,276.3c0-13.4-12.1-18.7-21.9-18.7c-17.9,0-26.4,11.9-26.6,21.7
	c0,3.8,1,7.5,3,10.8c2.3,3.6,5.5,6.5,9.2,8.5c4.2,2.1,8.7,3.1,13.4,3c4,0.1,8-0.5,11.9-1.7c3.7-1.4,7.2-3.4,10.2-6v-3.4
	c-2.9,2-6.1,3.7-9.4,4.9c-3,1-6.1,1.4-9.2,1.3c-4.8,0.1-9.5-1.6-13-4.9c-3.8-3.4-5.3-9-5.3-13v-2.5L382.6,276.3z M359.4,260.8
	c6.4,0,12.6,3.4,12.6,12.1h-26.7C346.1,266.7,350.7,260.8,359.4,260.8L359.4,260.8z M528.8,276.3c0-13.4-12.1-18.7-21.9-18.7
	c-17.9,0-26.4,11.9-26.6,21.7c0,3.8,1,7.5,3,10.8c2.3,3.6,5.5,6.5,9.2,8.5c4.2,2.1,8.7,3.1,13.4,3c4,0.1,8-0.5,11.9-1.7
	c3.7-1.4,7.2-3.4,10.2-6v-3.4c-2.9,2-6.1,3.7-9.4,4.9c-3,1-6.1,1.4-9.2,1.3c-4.8,0.1-9.5-1.6-13-4.9c-3.8-3.4-5.3-9-5.3-13v-2.5
	L528.8,276.3z M505.3,260.8c6.4,0,12.6,3.4,12.6,12.1h-26.6C492.3,266.6,496.8,260.8,505.3,260.8L505.3,260.8z M465.9,297.8
	c-3.6,0.2-10.6-0.9-10.6-9.2v-25.7h16.2v-3.8h-16v-8.3h-10.2v8.3h-6.6v3.8h6.4v25.6c0,8.5,6.8,13,16,12.8c3.1,0,6.1-0.9,8.7-2.5
	c1.1-0.7,2.2-1.4,3.2-2.3l-0.2-1.5C470.8,296.6,468.4,297.5,465.9,297.8L465.9,297.8z M564.3,260.8c7.2,0,13.8,4,16.4,8.7h2.3v-7.9
	c-5.7-2.7-11.8-4.1-18.1-4.1c-19.6,0-27.7,13.2-27.7,22.2c0,1.9,0.2,3.8,0.8,5.7c0.2,0.6,0.4,0.9,0.6,1.5c0.8,2.4,2.1,4.6,3.8,6.4
	c1.8,2.2,4.1,3.9,6.6,5.3c3.2,1.7,6.7,2.7,10.4,3c1.3,0.2,2.5,0.2,3.8,0.2c3.4,0,6.8-0.6,10-1.7h0.2c3.6-1.3,6.8-3.3,9.6-5.9v-3.4
	c-2.4,1.6-4.9,3.1-7.5,4.3c-2.9,1.1-5.9,1.6-9,1.5c-12.3,0-18.5-8.7-18.5-17.9C547.9,270.2,553,260.8,564.3,260.8z"/>
<path class="st1" d="M128.4,237.2v-33.9h-3v7.3c-14.7,0.6-26.8,9.8-29.8,22.1h7.9c2.7-10,11.5-17.2,21.9-17.9v22.4H88v3.2h6.8
	c0.9,14.3,14.1,26,30.5,26.6v7.2h3v-33.9H151c-0.8,10.4-8.1,19.2-18.3,21.9v4.3c14.3-2.3,25.3-13,26.2-26.2h6.8V237h-37.3V237.2z
	 M125.1,262.9c-12.1-0.7-21.8-10.3-22.6-22.4h22.7L125.1,262.9z M150.2,232.7h7.9c-2.8-10.9-12.8-19.6-25.5-21.7v4.3
	C141.2,217.6,147.9,224.2,150.2,232.7z"/>
</svg>
