<?xml version="1.0" encoding="utf-8"?>
<!-- Generator: Adobe Illustrator 24.3.0, SVG Export Plug-In . SVG Version: 6.00 Build 0)  -->
<svg version="1.1" id="katman_1" xmlns="http://www.w3.org/2000/svg" xmlns:xlink="http://www.w3.org/1999/xlink" x="0px" y="0px"
	 viewBox="0 0 1869.2 1012.4" style="enable-background:new 0 0 1869.2 1012.4;" xml:space="preserve">
<style type="text/css">
	.st0{clip-path:url(#SVGID_2_);fill-rule:evenodd;clip-rule:evenodd;fill:#005944;}
	.st1{fill-rule:evenodd;clip-rule:evenodd;fill:#005944;}
</style>
<g>
	<g>
		<defs>
			<rect id="SVGID_1_" x="79" y="127.2" width="1711" height="760"/>
		</defs>
		<clipPath id="SVGID_2_">
			<use xlink:href="#SVGID_1_"  style="overflow:visible;"/>
		</clipPath>
		<path class="st0" d="M159.8,870.4h-2.1c-10.5,0-19-3.5-24.3-9.6c-5-6.4-7.6-20.5-8.2-43.3l-2.3-87.7l0.6-0.6l138.6,157.9H282
			c0.6-3.5,0.6-5,0.6-8.5c0-4.7-0.6-9.9-1.4-14.3l-1.8-8.8c-1.2-5.8-2.1-15.5-2.1-22.8l-1.7-92.7v-1.8c0-31,3.5-36.8,25.1-39.8
			c0.3,0,0.9,0,1.5-0.3v-13.5h-75.4v13.5c14,0.6,20.7,2.9,25.7,8.8c4.1,5.3,7,21.4,7.6,46.5l2.1,55.6l-0.6,0.6l-110-124.8H79.7v13.5
			c9.6,1.5,17.8,5.5,28.7,14.3l1.2,1.2l1.4,110.5v3.5c0,11.4-0.3,16.9-1.7,23.7c-2.9,12.6-12.3,19-26.9,19h-1.8v13.7h79.3V870.4z
			 M540.8,684.8H348.7v13.5h2.9c17.8,0,23.1,7.3,23.1,31.9v108.8c0,24.6-5.3,31.6-23.1,31.6h-2.9v13.7h196.5l8.5-49.4h-20.2
			l-2.1,2.3c-10.5,12.6-17.8,18.7-28.9,24.8c-12.6,7.3-19.6,8.5-42.7,8.5c-25.4,0-33.3-7.3-33.3-30.7v-53.5h27.8
			c15.5,0,21.9,0.6,27.5,2.9c8.5,3.2,15.2,12,17.8,23.4h19.3v-64.6h-19.3c-2,7.6-3.2,10-7.3,14.9c-6.4,7.6-15.5,10-38.3,10h-27.5
			v-74.6h40.9c12,0,18.7,1.2,25.7,4.1c9.4,3.8,15.8,9.1,26.3,22.2l2.1,2.3h19.3V684.8z M585.9,684.8v13.5h2.3
			c18.1,0,23.4,7.3,23.4,31.9v108.8c0,24.6-5.3,31.6-23.4,31.6h-2.3v13.7h102.6c28.6,0.3,38.9-0.9,53.2-4.7c46.2-12,76-50,76-97.7
			c0-34.5-16.1-65.2-43-82.1c-7.4-4.6-15.5-8-24-10.2c-12.6-3.5-22.8-4.7-43.9-4.7L585.9,684.8L585.9,684.8z M663.4,698.2h7.6
			l9.6,0.3c31.9,0.3,44.4,4.1,57.9,18.4c8.2,8.4,14.3,18.6,17.8,29.8c4.1,13.2,6.2,27.2,6.2,42.1c0,37.7-13.8,66.1-36.3,75.7
			c-7.3,3.2-20.5,5.5-31,5.5c-23.7,0-31.9-9.1-31.9-34.5L663.4,698.2L663.4,698.2z M844.7,684.8v13.5h2.6c17.8,0,23.1,7.3,23.1,31.9
			v108.8c0,24.8-5,31.6-24,31.6h-1.2v13.7H964c31.9,0.3,45.3-2.3,60.8-10.5c17-9.1,28.1-26.3,28.1-44.1c0-26.3-21.6-44.2-60.8-50
			v-0.6c15.8-3.2,21-5,31.3-10.5c14.9-8.2,23.4-21.9,23.4-36.8c0-29.5-27.2-46.8-74.3-46.8L844.7,684.8L844.7,684.8z M922.1,774
			v-75.7h25.4c14.6,0,19.9,1.5,28.1,7.3c10.2,7.6,15.8,19.3,15.8,33.3c0,11.4-3.8,19.6-11.4,26.3c-7.9,6.7-14.3,8.8-28.9,8.8H922.1z
			 M922.1,788h28.4c27.8,0,46.8,17.5,46.8,43.2c0,24.9-17,39.5-45.9,39.5c-19.9,0-29.3-10.3-29.3-32.5V788z M1199.6,809l13.2,33
			c0.3,0.9,0.9,2.6,1.4,5.3c1.8,5.9,2.1,6.7,2.1,9c0,8.2-8.5,13.7-21.1,14v13.7h99.1v-13.7c-12.6,0-19.6-7-28.1-28.4L1204,682.4
			h-54.4l7.6,16.7L1103.3,836c-10.2,26.3-14.9,31-33.9,34.5v13.7h68.7v-13.7c-13.4-1.7-19.6-7-19.6-17.5c0-4.1,1.8-12,4.1-19
			l8.8-24.9L1199.6,809L1199.6,809z M1193.1,791.8h-55l26-73.4L1193.1,791.8z M1394.8,870.4h-2.1c-10.5,0-19-3.5-24.3-9.6
			c-5-6.4-7.6-20.5-8.2-43.3l-2.3-87.7l0.6-0.6l138.6,157.9h19.9c0.6-3.5,0.6-5,0.6-8.5c0-4.7-0.6-9.9-1.5-14.3l-1.8-8.8
			c-1.3-7.5-2-15.2-2-22.8l-1.8-92.7v-1.8c0-31,3.5-36.8,25.2-39.8c0.3,0,0.9,0,1.5-0.3v-13.5h-75.4v13.5c14,0.6,20.8,2.9,25.7,8.8
			c4.1,5.3,7,21.4,7.6,46.5l2.1,55.6l-0.6,0.6l-109.9-124.8h-71.9v13.5c9.7,1.5,17.9,5.5,28.7,14.3l1.2,1.2l1.4,110.5v3.5
			c0,11.4-0.3,16.9-1.8,23.7c-2.9,12.6-12.3,19-26.9,19h-1.8v13.7h79.3L1394.8,870.4L1394.8,870.4z M1694.8,698.2h2.1
			c9.1,0,14.9,4.4,14.9,11.1c0,6.7-10.5,19.9-25.2,31.9l-43.5,35.4v-46.5c0-24.6,5.3-31.9,23.4-31.9h2.3v-13.5h-103.2v13.5h3.3
			c18.1,0,23.4,7.3,23.4,31.9v108.8c0,24.6-5.3,31.6-23.4,31.6h-3.3v13.7h102.6v-13.7h-1.8c-18.1,0-23.4-7-23.4-31.6v-47.6l60.5,71
			c4.7,5.6,10.7,10.5,19.1,14.9c8,4.2,21.9,7.1,21.9,7.1h44.6v-13.7c-10.8-1.8-20.5-8.8-34.8-24.9l-72.2-82.5l48.8-40.9
			c22-18.4,25.2-20.2,44.5-24v-13.5h-80.7V698.2z M726.1,359.3c-0.2-54.5,21.5-106.9,60.2-145.3c38.5-38.7,90.8-60.3,145.3-60.2
			c54.5-0.1,106.9,21.5,145.4,60.2c38.8,38.8,60.2,90.4,60.2,145.3s-21.4,106.6-60.2,145.3c-38.5,38.7-90.8,60.4-145.4,60.2
			c-54.5,0.1-106.9-21.5-145.3-60.2C747.4,465.9,726.1,414.2,726.1,359.3L726.1,359.3z M699.5,359.3c-0.2,61.6,24.3,120.7,68,164.1
			c43.8,43.8,102.1,68,164.1,68c62,0,120.3-24.1,164.1-68c43.9-43.8,68-102.1,68-164.1c0-62-24.1-120.3-68-164.1
			c-43.4-43.7-102.5-68.1-164.1-68c-62,0-120.3,24.1-164.1,68C723.8,238.7,699.4,297.7,699.5,359.3L699.5,359.3z M699.5,359.3"/>
	</g>
	<path class="st1" d="M935,263.4l68.8-47.4l73.8,49.2v188.9l-69.5,46.8l-70.6-45.1L864,502.9L785.6,456l0.6-190.1l72.2-50L935,263.4
		z M861,235.5l-57.8,39.1l257.2,167.7l0.5-166.7l-54.2-35.1v91.4L861,235.5z M919.7,445.6L864,409v72.8L919.7,445.6z M919.7,445.6"
		/>
</g>
</svg>
