<?xml version="1.0" standalone="no"?>
<!DOCTYPE svg PUBLIC "-//W3C//DTD SVG 20010904//EN"
 "http://www.w3.org/TR/2001/REC-SVG-20010904/DTD/svg10.dtd">
<svg version="1.0" xmlns="http://www.w3.org/2000/svg"
 width="152.000000pt" height="152.000000pt" viewBox="0 0 152.000000 152.000000"
 preserveAspectRatio="xMidYMid meet">
<metadata>
Created by potrace 1.11, written by Peter Selinger 2001-2013
</metadata>
<g transform="translate(0.000000,152.000000) scale(0.100000,-0.100000)"
fill="#000000" stroke="none">
<path d="M688 1394 c-2 -1 -30 -5 -63 -8 -33 -4 -78 -12 -100 -18 -22 -5 -44
-11 -50 -13 -97 -22 -275 -140 -275 -181 0 -8 -4 -14 -9 -14 -11 0 -24 -70
-23 -117 5 -143 208 -278 465 -310 125 -15 337 -3 407 23 8 3 26 8 40 10 52
10 173 77 216 119 205 202 1 458 -398 501 -67 7 -206 12 -210 8z m217 -88 c11
-2 42 -9 68 -15 77 -18 172 -66 212 -107 31 -31 36 -42 32 -71 -22 -164 -470
-247 -756 -141 -137 51 -204 126 -165 186 48 76 141 121 314 151 45 8 258 6
295 -3z"/>
<path d="M1276 808 c-134 -132 -351 -198 -636 -194 -85 2 -168 6 -185 10 -115
26 -230 73 -277 113 -15 13 -15 11 -7 -28 12 -52 49 -105 105 -148 44 -33 151
-90 182 -96 9 -1 35 -8 57 -13 76 -21 100 -23 230 -27 136 -4 249 9 340 40
227 78 332 218 273 368 -6 15 -16 26 -22 25 -6 -1 -33 -23 -60 -50z"/>
<path d="M1300 499 c-54 -48 -222 -132 -305 -153 -180 -45 -355 -51 -534 -20
-89 15 -222 76 -280 128 l-23 21 5 -40 c8 -57 16 -75 54 -122 116 -145 410
-225 688 -189 93 12 103 14 162 31 140 41 271 140 292 223 18 68 17 120 -1
145 -12 14 -18 12 -58 -24z"/>
</g>
</svg>
