<?xml version="1.0" standalone="no"?>
<!DOCTYPE svg PUBLIC "-//W3C//DTD SVG 20010904//EN"
 "http://www.w3.org/TR/2001/REC-SVG-20010904/DTD/svg10.dtd">
<svg version="1.0" xmlns="http://www.w3.org/2000/svg"
 width="1348.000000pt" height="1348.000000pt" viewBox="0 0 1348.000000 1348.000000"
 preserveAspectRatio="xMidYMid meet">
<metadata>
Created by potrace 1.11, written by Peter Selinger 2001-2013
</metadata>
<g transform="translate(0.000000,1348.000000) scale(0.100000,-0.100000)"
fill="#000000" stroke="none">
<path d="M6388 13375 c-1 -1 -73 -6 -158 -10 -85 -3 -171 -8 -190 -10 -19 -2
-78 -6 -130 -10 -52 -3 -111 -8 -130 -10 -19 -2 -69 -7 -110 -10 -41 -4 -82
-8 -90 -10 -9 -2 -47 -6 -85 -9 -39 -4 -77 -9 -85 -11 -8 -2 -42 -6 -75 -10
-33 -3 -100 -12 -150 -20 -49 -7 -110 -16 -135 -20 -25 -3 -103 -17 -175 -30
-71 -13 -148 -26 -170 -30 -22 -3 -56 -10 -75 -15 -19 -5 -53 -12 -75 -16 -22
-3 -43 -8 -46 -10 -4 -2 -24 -6 -45 -10 -22 -3 -93 -19 -159 -36 -66 -16 -127
-31 -136 -33 -87 -18 -435 -120 -629 -185 -747 -250 -1420 -612 -1886 -1014
-119 -102 -347 -337 -430 -441 -266 -336 -436 -696 -505 -1070 -74 -404 -26
-813 142 -1207 64 -149 171 -349 219 -405 5 -7 10 -15 10 -18 0 -16 166 -227
255 -324 289 -314 656 -600 1080 -843 151 -87 385 -206 535 -273 286 -127 709
-281 975 -356 309 -85 653 -169 805 -195 14 -2 45 -8 70 -14 40 -8 67 -13 150
-26 14 -2 34 -6 46 -9 12 -3 39 -7 60 -10 21 -3 66 -11 99 -17 33 -6 74 -12
90 -13 17 -2 75 -10 130 -18 55 -9 129 -19 165 -22 36 -4 72 -8 80 -10 8 -2
49 -6 90 -10 41 -3 86 -8 100 -10 14 -2 63 -6 110 -10 47 -4 99 -8 115 -10 17
-3 81 -7 143 -10 63 -3 130 -8 150 -10 232 -23 975 -23 1317 0 121 8 254 17
285 20 19 2 69 6 110 10 41 3 89 7 105 10 17 2 62 6 100 10 39 3 81 8 95 10
14 3 43 7 65 9 79 10 201 26 225 31 14 2 43 6 65 10 22 3 65 10 95 15 30 5 73
12 95 15 22 3 47 7 55 10 8 2 31 7 50 9 19 3 94 17 165 31 72 15 141 29 155
31 14 3 33 7 42 10 10 3 28 7 42 10 47 8 463 115 546 140 141 43 469 152 570
191 313 119 775 334 950 444 14 8 54 33 90 54 79 46 325 210 361 239 14 11 41
32 59 46 90 66 276 229 379 331 275 274 483 579 610 895 40 100 104 307 115
374 3 19 10 62 16 95 24 138 31 359 17 520 -8 82 -41 290 -47 290 -1 0 -3 11
-6 25 -2 14 -10 41 -16 60 -7 19 -13 37 -13 40 -21 83 -93 265 -151 380 -49
98 -148 265 -171 288 -7 7 -13 17 -13 22 0 5 -6 15 -12 22 -7 7 -42 52 -77 98
-199 261 -540 568 -901 810 -163 108 -246 160 -375 230 -61 34 -107 59 -141
79 -91 52 -449 214 -622 282 -185 73 -588 212 -647 224 -11 2 -20 4 -20 5 0 1
-7 3 -15 5 -8 2 -64 18 -125 35 -94 27 -233 63 -285 75 -8 2 -67 15 -130 30
-104 23 -367 78 -430 89 -14 2 -41 7 -60 10 -81 14 -97 17 -130 22 -19 2 -46
7 -60 9 -14 3 -43 7 -65 11 -22 3 -51 7 -65 10 -38 6 -159 22 -230 29 -25 3
-56 7 -70 10 -14 3 -52 7 -85 10 -33 3 -76 7 -95 10 -60 7 -132 15 -210 20
-41 3 -100 7 -130 10 -30 2 -95 7 -145 10 -49 4 -121 9 -160 12 -77 5 -1021
13 -1027 8z m557 -769 c127 -4 257 -9 290 -11 33 -2 98 -7 145 -10 108 -7 190
-14 260 -22 30 -3 69 -7 85 -8 36 -2 139 -14 248 -29 17 -3 55 -8 82 -12 28
-3 59 -8 70 -10 11 -2 40 -7 65 -10 25 -3 54 -8 65 -10 10 -2 37 -6 60 -10 22
-3 119 -21 215 -40 228 -46 212 -42 289 -60 36 -9 73 -17 81 -19 135 -29 640
-177 720 -212 8 -3 17 -7 20 -7 18 -4 213 -79 277 -107 24 -11 45 -19 49 -19
6 0 74 -31 254 -117 707 -337 1179 -773 1281 -1183 14 -59 19 -242 7 -302 -62
-310 -363 -654 -825 -943 -336 -210 -824 -419 -1322 -566 -238 -70 -735 -188
-856 -204 -11 -1 -33 -5 -50 -8 -36 -8 -60 -12 -195 -32 -58 -9 -116 -17 -130
-19 -60 -9 -191 -25 -250 -31 -19 -2 -57 -6 -85 -9 -27 -3 -79 -8 -115 -11
-36 -3 -85 -8 -110 -10 -47 -5 -206 -14 -345 -21 -100 -5 -766 -4 -860 0 -290
15 -458 27 -585 41 -25 3 -70 8 -100 10 -51 5 -82 8 -170 20 -19 3 -55 7 -80
10 -25 3 -106 15 -180 26 -74 12 -145 22 -157 24 -12 2 -34 6 -50 9 -15 3 -41
8 -58 11 -54 8 -128 23 -247 49 -64 14 -127 27 -140 30 -48 9 -357 89 -453
117 -607 181 -1060 383 -1470 654 -180 120 -284 203 -421 340 -97 96 -224 250
-224 271 0 4 -11 22 -25 40 -14 18 -25 39 -25 48 0 8 -4 17 -9 20 -16 10 -61
138 -75 216 -17 90 -14 213 8 300 24 94 105 251 183 355 273 364 756 678 1463
951 230 88 680 226 895 273 28 6 91 20 140 31 50 12 102 23 117 25 15 2 44 8
65 14 21 5 54 12 73 15 19 3 46 8 60 11 72 15 291 49 385 60 17 2 50 7 75 10
92 13 158 21 255 30 33 3 78 8 100 10 145 15 273 22 540 31 105 4 191 7 192 8
3 2 270 -2 498 -8z"/>
<path d="M12696 7966 c-14 -19 -31 -40 -38 -48 -8 -7 -29 -33 -48 -58 -130
-168 -460 -499 -670 -671 -36 -30 -67 -56 -70 -59 -4 -5 -147 -115 -185 -142
-5 -4 -23 -18 -40 -32 -91 -72 -571 -386 -590 -386 -3 0 -22 -11 -43 -24 -212
-138 -814 -418 -1212 -563 -499 -183 -1188 -369 -1655 -448 -153 -25 -285 -47
-305 -50 -14 -2 -38 -6 -55 -9 -16 -3 -50 -8 -75 -11 -25 -3 -72 -10 -105 -15
-33 -5 -85 -12 -115 -15 -30 -3 -66 -8 -80 -10 -24 -4 -77 -9 -182 -20 -29 -3
-69 -8 -88 -10 -45 -5 -140 -14 -325 -30 -27 -2 -99 -7 -160 -10 -60 -4 -126
-8 -145 -10 -264 -25 -1224 -25 -1580 0 -30 2 -95 7 -145 10 -49 3 -108 8
-130 10 -22 2 -71 7 -110 10 -86 8 -150 14 -190 20 -16 2 -57 6 -90 10 -33 4
-71 8 -85 10 -14 2 -47 7 -75 10 -27 4 -61 9 -75 11 -14 2 -72 10 -130 19
-103 15 -210 34 -320 55 -77 14 -85 16 -175 35 -44 9 -87 18 -95 20 -46 10
-326 78 -390 95 -41 12 -84 23 -94 25 -22 5 -29 7 -246 76 -537 169 -1019 386
-1440 648 -135 84 -316 209 -404 279 l-68 55 6 -74 c7 -90 11 -114 30 -215 13
-69 66 -262 83 -304 3 -8 7 -19 9 -25 13 -52 115 -268 176 -373 127 -220 238
-362 443 -567 191 -192 220 -218 398 -357 476 -372 1079 -684 1778 -919 113
-38 215 -72 225 -74 11 -3 82 -23 159 -45 168 -49 582 -150 675 -166 14 -2 36
-7 50 -10 14 -3 36 -8 50 -10 14 -3 59 -11 100 -19 41 -8 93 -17 115 -20 22
-3 76 -12 120 -20 44 -8 103 -17 130 -20 28 -3 75 -10 105 -15 30 -5 78 -11
105 -14 28 -4 66 -8 85 -11 33 -4 73 -9 175 -20 100 -11 133 -14 200 -20 39
-4 90 -8 115 -10 99 -9 303 -21 510 -31 259 -13 961 -6 1140 11 19 2 82 6 140
10 58 4 121 8 140 10 19 2 73 7 119 10 46 4 92 8 102 10 9 2 50 6 91 10 40 3
80 8 88 10 8 2 44 7 80 10 36 3 72 8 80 10 8 2 40 7 70 10 30 3 62 8 70 10 8
2 35 7 60 10 59 7 322 53 380 66 25 5 56 12 70 14 14 3 48 9 75 15 28 6 60 12
73 15 13 2 31 6 40 9 9 3 28 7 42 10 14 2 43 9 65 14 22 6 51 13 65 16 185 37
646 175 920 275 47 18 105 39 130 47 242 87 757 335 955 462 11 6 29 16 40 21
32 14 326 214 402 272 149 116 254 209 388 343 454 455 699 945 755 1506 8 81
5 373 -3 415 -3 11 -8 45 -12 75 -26 193 -94 413 -192 620 -54 115 -138 266
-153 275 -4 3 -19 -11 -34 -29z"/>
<path d="M12807 4647 c-27 -34 -225 -234 -307 -310 -235 -219 -598 -493 -905
-682 -333 -206 -855 -468 -1228 -616 -56 -22 -111 -45 -122 -50 -11 -5 -49
-20 -85 -33 -66 -24 -216 -80 -415 -156 -60 -23 -117 -43 -125 -45 -8 -2 -42
-13 -75 -25 -124 -43 -410 -127 -535 -155 -8 -2 -40 -11 -72 -19 -53 -14 -67
-18 -135 -32 -16 -3 -48 -10 -73 -15 -25 -6 -56 -13 -70 -15 -14 -2 -36 -7
-50 -10 -14 -3 -36 -8 -50 -10 -14 -3 -47 -9 -75 -14 -27 -5 -66 -12 -85 -15
-81 -13 -96 -16 -110 -20 -8 -2 -40 -7 -70 -10 -30 -3 -62 -8 -70 -10 -8 -2
-40 -7 -70 -10 -30 -3 -62 -8 -70 -10 -8 -2 -37 -7 -65 -10 -77 -10 -108 -14
-131 -19 -12 -2 -45 -7 -75 -11 -30 -3 -61 -8 -69 -10 -8 -2 -35 -7 -60 -10
-25 -3 -56 -8 -70 -10 -14 -2 -50 -7 -80 -10 -30 -4 -66 -8 -80 -10 -14 -2
-47 -6 -75 -9 -27 -3 -72 -8 -100 -11 -27 -3 -79 -8 -115 -11 -36 -3 -78 -7
-95 -8 -16 -2 -91 -7 -165 -11 -74 -4 -142 -9 -151 -10 -92 -17 -942 -25
-1244 -11 -265 12 -297 13 -371 20 -38 3 -101 8 -140 11 -40 3 -87 7 -105 10
-19 2 -61 6 -94 9 -97 10 -158 17 -185 21 -14 2 -51 7 -83 10 -32 4 -66 8 -76
10 -10 2 -42 6 -71 10 -29 4 -62 9 -74 11 -12 2 -41 7 -66 10 -25 3 -54 8 -65
10 -11 2 -47 9 -80 14 -103 17 -131 22 -190 35 -181 37 -283 60 -354 76 -47
11 -93 22 -101 24 -172 39 -634 181 -820 252 -36 13 -90 34 -120 45 -206 78
-555 240 -756 352 -65 36 -192 111 -284 167 -216 133 -500 350 -690 527 l-65
60 -6 -36 c-7 -49 -3 -291 6 -367 20 -170 77 -392 139 -546 32 -81 122 -270
149 -314 68 -112 173 -266 235 -344 69 -87 297 -323 412 -427 103 -93 383
-308 468 -359 10 -6 55 -35 102 -66 373 -244 916 -497 1440 -672 157 -53 491
-150 588 -172 9 -2 55 -14 102 -25 88 -22 372 -85 425 -94 17 -3 41 -8 55 -11
63 -13 505 -85 585 -95 50 -6 101 -13 115 -15 14 -2 54 -6 90 -10 36 -4 76 -8
90 -10 29 -4 107 -12 205 -20 39 -4 86 -8 105 -10 19 -2 76 -6 125 -10 50 -3
119 -8 155 -10 372 -26 1116 -26 1430 0 30 2 96 7 145 11 50 3 108 8 130 10
194 18 244 23 335 34 41 5 100 12 130 15 30 3 62 8 70 10 8 2 38 6 65 10 28 3
61 7 75 10 14 2 43 7 65 10 57 8 156 24 185 30 14 3 66 12 115 21 218 38 613
129 845 196 58 16 125 36 150 43 489 139 1088 397 1514 652 188 112 489 323
577 404 14 13 50 45 81 72 71 60 246 235 318 316 329 377 540 825 595 1261 3
25 8 61 10 80 6 42 7 346 1 375 -2 11 -7 47 -11 80 -23 204 -111 499 -202 679
l-28 55 -18 -22z"/>
</g>
</svg>
